# xmcd
#
# Track frame offsets:
#	150
#	13708
#	30366
#	41242
#	52358
#	65112
#	79240
#	91776
#	107420
#	121638
#	134054
#	146420
#	159510
#	172162
#
# Disc length: 2486 seconds
# Revision: 0
# Processed by: cddbd v1.5.2PL0 Copyright (c) Steve Scherf et al.
# Submitted via: dBpowerAMP V12.0
#
DISCID=c109b40e
DTITLE=Robert Lockwood Jr. - Steady Rollin' Man [Delmark] (t)
DYEAR=1993
DGENRE=Blues
TTITLE0=Steady Rollin' Man
TTITLE1=Western Horizon
TTITLE2=Take A Walk With Me
TTITLE3=Steady Groove (Instrumental)
TTITLE4=Mean Red Spider
TTITLE5=Lockwood's Boogie (Instrumental)
TTITLE6=Ramblin' On My Mind
TTITLE7=Blues And Trouble
TTITLE8=Worst Old Feeling
TTITLE9=Kind-Hearted Woman
TTITLE10=Can't Stand The Pain
TTITLE11=Tanya (Instrumental)
TTITLE12=Worst Old Feeling (Alternate)
TTITLE13=Lockwood's Boogie (Alternate)
EXTD=
EXTT0=
EXTT1=
EXTT2=
EXTT3=
EXTT4=
EXTT5=
EXTT6=
EXTT7=
EXTT8=
EXTT9=
EXTT10=
EXTT11=
EXTT12=
EXTT13=
PLAYORDER=
